<?xml version="1.0" standalone="no"?>
<!DOCTYPE svg PUBLIC "-//W3C//DTD SVG 1.1//EN" "http://www.w3.org/Graphics/SVG/1.1/DTD/svg11.dtd" >
<svg xmlns="http://www.w3.org/2000/svg" xmlns:xlink="http://www.w3.org/1999/xlink" version="1.1">
<metadata>
Created by FontForge 20170924 at Wed Apr  7 09:02:52 1993
 By www-data
1.01  Mama  1993                         By Richard William Mueller
</metadata>
<defs>
<font id="MamaRegular" horiz-adv-x="720" >
  <font-face 
    font-family="Mama"
    font-weight="5"
    font-stretch="normal"
    units-per-em="1000"
    panose-1="0 0 0 0 0 0 0 0 0 0"
    ascent="800"
    descent="-200"
    x-height="775"
    cap-height="785"
    bbox="-2 -193 1379 801"
    underline-thickness="20"
    underline-position="-143"
    unicode-range="U+0020-F000"
  />
<missing-glyph horiz-adv-x="800" 
d="M50 0v800h700v-800h-700zM700 50v700h-600v-700h600z" />
    <glyph glyph-name=".notdef" horiz-adv-x="800" 
d="M50 0v800h700v-800h-700zM700 50v700h-600v-700h600z" />
    <glyph glyph-name=".null" unicode="&#xd7;" horiz-adv-x="0" 
 />
    <glyph glyph-name=".null" unicode="&#x141;" horiz-adv-x="0" 
 />
    <glyph glyph-name=".null" unicode="&#xfd;" horiz-adv-x="0" 
 />
    <glyph glyph-name="nonmarkingreturn" horiz-adv-x="300" 
 />
    <glyph glyph-name="space" unicode=" " horiz-adv-x="300" 
 />
    <glyph glyph-name="exclam" unicode="!" horiz-adv-x="420" 
d="M339 418q0 -54 -21.5 -72t-107.5 -18q-76 0 -102.5 20.5t-26.5 73.5q0 85 38 228t77 143h35q35 0 71.5 -143.5t36.5 -231.5zM380 66q0 -39 -35 -52t-95 -13h-33t-31 1q-11 0 -21.5 -0.5t-21.5 -0.5q-71 0 -94.5 17t-23.5 50q0 69 23.5 144t78.5 75h162q40 0 65.5 -70.5
t25.5 -150.5z" />
    <glyph glyph-name="quotedbl" unicode="&#x22;" horiz-adv-x="580" 
d="M255 502q0 -58 -15.5 -74t-100.5 -16q-73 0 -91 19t-18 75q0 85 29 184.5t69 99.5h35q36 0 64 -101t28 -187zM531 502q0 -58 -15.5 -74t-100.5 -16q-73 0 -91 19t-18 75q0 85 29 184.5t69 99.5h35q36 0 64 -101t28 -187z" />
    <glyph glyph-name="numbersign" unicode="#" horiz-adv-x="850" 
d="M329 233l-36 -145q-17 -57 -38.5 -73.5t-105.5 -16.5q-53 0 -72 9t-19 31q0 12 1 17.5t8 29t18.5 57.5t31.5 91h-38q-28 0 -43 10t-15 50q0 38 25 66.5t68 28.5h60l28 72h-60q-32 0 -47.5 9t-15.5 48q0 37 26 64t69 27h89q29 68 54 114.5t43.5 62.5t31.5 16
q17 0 21.5 -18t4.5 -35q0 -28 -2.5 -50.5t-13.5 -89.5h173q28 66 51.5 111t42 63.5t35.5 18.5q19 0 22 -20.5t3 -33.5q0 -25 -4 -59t-11 -80h22q46 0 72 -29t26 -62q0 -35 -15.5 -46t-51.5 -11h-79l-14 -72h50q45 0 70.5 -30.5t25.5 -64.5q0 -37 -13.5 -48.5t-48.5 -11.5
h-118l-35 -145q-17 -57 -38.5 -73.5t-105.5 -16.5q-53 0 -72 9t-19 31q0 12 1 17.5t8.5 30.5t18.5 57.5t31 89.5h-100zM376 460l-14 -72h124l28 72h-138z" />
    <glyph glyph-name="dollar" unicode="$" horiz-adv-x="650" 
d="M211 38q-71 0 -118.5 44.5t-47.5 122.5q0 96 34.5 139.5t88.5 43.5q39 0 62 -36t48 -36h12q27 0 39 6.5t12 33.5q0 20 -113 57t-113 150q0 67 43.5 116t122.5 57q6 24 12.5 35.5t14 20t18.5 8.5q12 0 18 -6t14 -22t13 -40q70 -13 114.5 -58t44.5 -116q0 -15 -12.5 -30
t-26.5 -15q-46 0 -69 39t-41.5 46.5t-38.5 7.5q-16 0 -26 -5.5t-10 -18.5q0 -51 92 -86.5t146.5 -86t54.5 -201.5q0 -91 -43.5 -131.5t-119.5 -40.5q0 -53 -16.5 -69.5t-99.5 -16.5q-72 0 -90.5 17.5t-18.5 70.5z" />
    <glyph glyph-name="percent" unicode="%" horiz-adv-x="840" 
d="M340 482q0 -45 -27.5 -61.5t-117.5 -16.5q-18 0 -35 -0.5t-33 -0.5q-50 0 -73 14t-23 59q0 115 30 216t98 101h49q63 0 97.5 -112.5t34.5 -198.5zM628 778q0 -38 -45 -165t-85 -228.5t-90.5 -225t-66 -142.5t-83.5 -19q-32 0 -45.5 9t-13.5 27q0 14 5.5 29.5t23.5 59
t92.5 197.5t148 290.5t94 158t30.5 27t19 5.5q16 0 16 -23zM790 80q0 -45 -27.5 -61.5t-117.5 -16.5q-18 0 -35 -0.5t-33 -0.5q-50 0 -73 14t-23 59q0 115 30 216t98 101h49q63 0 97.5 -112.5t34.5 -198.5zM210 621q0 28 -8 56t-21 28q-12 0 -18.5 -28t-6.5 -55
q0 -16 7.5 -25.5t18.5 -9.5q28 0 28 34zM660 219q0 28 -8 56t-21 28q-12 0 -18.5 -28t-6.5 -55q0 -16 7.5 -25.5t18.5 -9.5q28 0 28 34z" />
    <glyph glyph-name="ampersand" unicode="&#x26;" horiz-adv-x="700" 
d="M667 404q0 -53 -33 -66t-33 -18q1 -13 9 -71t8 -90q0 -95 -46 -128t-215 -33q-212 0 -268.5 24.5t-56.5 133.5q0 153 38 227t67 93.5t29 27.5q0 9 -11.5 24t-11.5 57q0 108 49.5 158t149.5 50q78 0 137.5 -46t59.5 -120q0 -21 -16 -36t-36 -15q-24 0 -60 50t-61 50
q-34 0 -54 -16.5t-20 -56.5q0 -52 63 -54t63 -67q0 -23 -13.5 -28.5t-40.5 -5.5q-29 0 -43.5 -6.5t-14.5 -33.5q0 -20 18.5 -27t49.5 -7q74 0 82 45.5t36 45.5h124q20 0 35.5 -19.5t15.5 -41.5z" />
    <glyph glyph-name="quotesingle" unicode="'" horiz-adv-x="300" 
d="M255 502q0 -58 -15.5 -74t-100.5 -16q-73 0 -91 19t-18 75q0 85 29 184.5t69 99.5h35q36 0 64 -101t28 -187z" />
    <glyph glyph-name="parenleft" unicode="(" horiz-adv-x="400" 
d="M357 45q0 -32 -33 -42t-84 -10h-25q-108 0 -143.5 34.5t-35.5 110.5q0 27 19 134.5t52 243t68 217.5q26 42 80 42q39 0 66 -22t27 -60q0 -28 -60.5 -53t-60.5 -175q0 -72 64 -93.5t64 -55.5z" />
    <glyph glyph-name="parenright" unicode=")" horiz-adv-x="400" 
d="M362 138q0 -76 -35.5 -110.5t-143.5 -34.5h-21q-55 0 -88 9t-33 43l2 271q0 33 64 55t64 94q0 149 -60.5 174t-60.5 54q0 39 26.5 60.5t66.5 21.5q54 0 80 -42q35 -83 66 -208t52 -244.5t21 -142.5z" />
    <glyph glyph-name="asterisk" unicode="*" horiz-adv-x="380" 
d="M201 573q2 -27 10.5 -41t17.5 -27q4 -11 4 -25q0 -21 -12 -36t-35 -15q-25 0 -37 14t-12 34q0 13 5 28q12 19 18 29t10 34q-23 -17 -32 -29.5t-23.5 -30t-42.5 -17.5q-27 0 -39 25q-8 12 -8 25q0 18 15.5 31.5t35.5 17.5q14 1 24 -0.5t20 -2.5q8 0 17 2.5t20 7.5
q-14 7 -22.5 9.5t-17.5 2.5q-12 -1 -21 -1q-6 0 -17.5 2.5t-25 15t-13.5 29.5q0 12 9.5 29t33.5 17q26 0 39 -16t19.5 -30t28.5 -30q-4 26 -11.5 40.5t-13 26.5t-5.5 25q0 19 12 33t33 14q22 0 33.5 -13.5t11.5 -31.5q0 -11 -5 -24q-11 -20 -17.5 -33.5t-6.5 -40.5
q19 13 27.5 26t18.5 29q19 24 44 24q22 0 32.5 -18t10.5 -31q0 -17 -13 -28t-30 -14.5t-20 -3.5h-15q-8 0 -14.5 -1t-20.5 -7q17 -7 30 -7q9 0 23 2t23 1q22 -4 36.5 -17.5t14.5 -32.5q0 -11 -8 -24.5t-18 -19.5t-22 -6q-27 0 -41 19.5t-23.5 31t-34.5 29.5z" />
    <glyph glyph-name="plus" unicode="+" horiz-adv-x="560" 
d="M354 481h42q56 0 88.5 -40t32.5 -85q0 -47 -19.5 -62.5t-63.5 -15.5h-49l2 -40q0 -58 -15.5 -74t-100.5 -16q-73 0 -91 19t-18 75l1 36h-37q-38 0 -57.5 12.5t-19.5 65.5q0 50 32 87.5t85 37.5h31q13 51 29 81t34 30h35q16 0 31 -30t28 -81z" />
    <glyph glyph-name="comma" unicode="," horiz-adv-x="420" 
d="M377 15q0 -84 -34.5 -117.5t-98.5 -33.5h-18q-45 0 -69 6.5t-24 33.5q0 29 55 35t55 22q0 34 -104.5 37t-104.5 80q0 78 29 138t82 60h29.5t31.5 1q49 0 79 -9t46 -38q24 -75 35 -120t11 -95z" />
    <glyph glyph-name="hyphen" unicode="-" horiz-adv-x="500" 
d="M433 356q0 -47 -19.5 -62.5t-63.5 -15.5h-224q-38 0 -57.5 12.5t-19.5 65.5q0 50 32 87.5t85 37.5h146q56 0 88.5 -40t32.5 -85z" />
    <glyph glyph-name="hyphen" unicode="&#xad;" horiz-adv-x="500" 
d="M433 356q0 -47 -19.5 -62.5t-63.5 -15.5h-224q-38 0 -57.5 12.5t-19.5 65.5q0 50 32 87.5t85 37.5h146q56 0 88.5 -40t32.5 -85z" />
    <glyph glyph-name="period" unicode="." horiz-adv-x="420" 
d="M375 94q0 -66 -29.5 -80t-145.5 -14h-38q-70 0 -99.5 14t-29.5 66q0 135 38.5 168.5t130.5 33.5q93 0 133 -29t40 -159z" />
    <glyph glyph-name="slash" unicode="/" horiz-adv-x="550" 
d="M272 88q-31 -57 -56 -73.5t-110 -16.5q-45 0 -64 7t-19 23q0 11 5.5 23.5t28.5 56t118 198.5t193 299.5t130 170t47 25.5q17 0 17 -25q0 -42 -55 -176.5t-128 -290t-107 -221.5z" />
    <glyph glyph-name="zero" unicode="0" horiz-adv-x="700" 
d="M650 150q0 -90 -54.5 -122.5t-235.5 -32.5q-27 0 -73 -1t-65 -1q-101 0 -146 27.5t-45 117.5q0 140 23.5 283t81.5 246.5t152 103.5l98 1q88 0 147.5 -114t88 -264.5t28.5 -243.5zM390 427q0 53 -16.5 110.5t-42.5 57.5q-23 0 -36 -56.5t-13 -108.5q0 -34 15.5 -52
t37.5 -18t38.5 17.5t16.5 49.5z" />
    <glyph glyph-name="one" unicode="1" horiz-adv-x="450" 
d="M222 0q-87 0 -130.5 16t-43.5 77q0 65 29 221.5t29 198.5q0 40 -42.5 51t-42.5 31q0 71 85.5 135t124.5 64q50 0 84 -138t51.5 -304t17.5 -226q0 -72 -28 -99t-134 -27z" />
    <glyph glyph-name="two" unicode="2" horiz-adv-x="590" 
d="M545 172q0 -106 -45 -142.5t-200 -36.5q-191 0 -232.5 24t-41.5 133q0 152 56.5 209t152 101t95.5 93q0 23 -12.5 36.5t-31.5 13.5q-29 0 -61 -48.5t-55 -48.5q-28 0 -44 18t-16 48q0 97 44 149.5t156 52.5q114 0 160.5 -41.5t46.5 -138.5q0 -87 -38 -115.5t-116 -62
t-78 -73.5q0 -19 15.5 -23.5t43.5 -4.5q47 0 72 41t38 41q45 0 68 -71t23 -154z" />
    <glyph glyph-name="three" unicode="3" horiz-adv-x="600" 
d="M296 -9h-56q-110 0 -162 31t-52 143q0 79 27 141.5t73 62.5q21 0 63.5 -33.5t64.5 -33.5q20 2 40.5 13.5t20.5 29.5q0 55 -68 57t-68 42q0 82 81 91t81 59q0 22 -16.5 33t-34.5 11q-43 0 -77 -54.5t-74 -54.5q-25 0 -38.5 20t-13.5 49q0 87 53.5 133.5t147.5 46.5
q100 0 151 -51t51 -139q0 -49 -23 -77q-26 -22 -51 -44q52 -29 93 -92.5t41 -158.5q0 -136 -44.5 -180.5t-209.5 -44.5z" />
    <glyph glyph-name="four" unicode="4" horiz-adv-x="640" 
d="M471 297q0 -34 10 -96.5t10 -84.5q0 -87 -33.5 -107t-169.5 -20q-62 0 -102 19t-40 70q0 28 27.5 94t27.5 97t-86 37t-86 94q0 34 59 126.5t131 172t106 79.5q79 0 96.5 -56.5t17.5 -187.5q0 -36 84.5 -53t84.5 -89q0 -38 -16.5 -50t-47.5 -12q-21 1 -31 1q-22 0 -32 -6
t-10 -28zM297 592q-17 0 -42.5 -42t-25.5 -57q0 -11 9 -17t22 -6q18 0 29.5 11t11.5 37q0 12 1 31.5t1 24.5q0 18 -6 18z" />
    <glyph glyph-name="five" unicode="5" horiz-adv-x="608" 
d="M378 -19q-133 0 -197 6t-108.5 36.5t-44.5 99.5q0 92 25.5 158t102.5 66q63 0 94.5 -34t60.5 -34q21 0 24.5 24.5t3.5 44.5q0 29 -14.5 52t-39.5 23q-25 2 -32.5 -20t-95.5 -22q-26 0 -46 11t-20 36q0 72 23.5 145.5t40.5 122.5t42 60t61 11q27 0 93 -2.5t72 -2.5
q44 0 61 -15t17 -57q0 -29 -13.5 -39t-40.5 -10q-7 0 -24.5 1t-26.5 1q-32 0 -56 -14t-24 -47q0 -50 55.5 -56.5t102 -32t76.5 -107.5t30 -191q0 -103 -43.5 -158.5t-158.5 -55.5z" />
    <glyph glyph-name="six" unicode="6" horiz-adv-x="640" 
d="M327 -18q-167 0 -233 64t-66 185q0 208 85.5 374t228.5 166q81 0 126 -48t45 -123q0 -28 -12 -49t-42 -21q-23 0 -51 38.5t-48 38.5q-27 0 -52.5 -31.5t-25.5 -68.5q0 -41 13 -41q24 10 48.5 19t46.5 9q102 0 150.5 -81.5t48.5 -196.5q0 -109 -50.5 -171.5t-211.5 -62.5z
M378 329q0 24 -7 41t-22 17q-25 0 -43.5 -17.5t-18.5 -42.5q0 -17 15.5 -30.5t36.5 -13.5q17 0 28 14t11 32z" />
    <glyph glyph-name="seven" unicode="7" horiz-adv-x="530" 
d="M497 623q0 -21 -49.5 -127.5t-49.5 -163.5q0 -46 5 -147.5t5 -150.5q0 -47 -56 -54.5t-102 -7.5q-134 0 -180 24t-46 104q0 96 34.5 149.5t124 166.5t89.5 166q0 15 -27 15q-10 0 -38.5 -2t-33.5 -2q-39 0 -62.5 16.5t-23.5 62.5q0 36 21.5 60.5t61.5 24.5q38 0 94.5 2.5
t63.5 2.5q85 0 127 -27.5t42 -111.5z" />
    <glyph glyph-name="eight" unicode="8" horiz-adv-x="640" 
d="M363 -25q-195 0 -264.5 37t-69.5 150q0 125 44 197q48 51 97 102q0 7 -31 39t-31 99q0 70 63 115.5t141 45.5q94 0 157 -52t63 -135q0 -70 -29 -85.5t-29 -30.5q53 -34 94.5 -105t41.5 -196q0 -94 -54 -137.5t-193 -43.5zM364 590q0 23 -11 38.5t-31 15.5t-32 -15
t-12 -38q0 -21 10 -35t31 -14q28 0 36.5 12t8.5 36zM366 344q0 24 -11 40.5t-35 16.5t-37 -17t-13 -45q0 -18 14.5 -28.5t35.5 -10.5q46 0 46 44z" />
    <glyph glyph-name="nine" unicode="9" horiz-adv-x="630" 
d="M579 253q0 -141 -63 -208.5t-240 -67.5q-125 0 -186.5 48.5t-61.5 157.5q0 71 20.5 120.5t71.5 49.5q21 0 48 -25t71 -25q47 0 81 16t34 46q0 19 -24 19q-12 0 -37 -4.5t-31 -4.5q-79 0 -128.5 42t-49.5 126q0 93 55.5 152.5t151.5 59.5q19 0 41.5 -2t82.5 -9.5t112 -151
t52 -339.5zM305 627q-27 0 -42.5 -19t-15.5 -47q0 -19 15 -35t36 -16q31 0 45 15t14 42t-12 43.5t-40 16.5z" />
    <glyph glyph-name="colon" unicode=":" horiz-adv-x="420" 
d="M375 94q0 -66 -29.5 -80t-145.5 -14h-38q-70 0 -99.5 14t-29.5 66q0 135 38.5 168.5t130.5 33.5q93 0 133 -29t40 -159zM347 502q0 -69 -18 -81.5t-127 -12.5h-37q-67 0 -92.5 14t-25.5 66q0 130 41 160t116 30h24q54 0 86.5 -32.5t32.5 -143.5z" />
    <glyph glyph-name="semicolon" unicode=";" horiz-adv-x="420" 
d="M347 502q0 -69 -18 -81.5t-127 -12.5h-37q-67 0 -92.5 14t-25.5 66q0 130 41 160t116 30h24q54 0 86.5 -32.5t32.5 -143.5zM377 15q0 -84 -34.5 -117.5t-98.5 -33.5h-18q-45 0 -69 6.5t-24 33.5q0 29 55 35t55 22q0 34 -104.5 37t-104.5 80q0 78 29 138t82 60h29.5
t31.5 1q49 0 79 -9t46 -38q24 -75 35 -120t11 -95z" />
    <glyph glyph-name="equal" unicode="=" horiz-adv-x="560" 
d="M517 209q0 -48 -17 -63t-60 -15h-320q-36 0 -53.5 12t-17.5 66q0 50 31 87.5t83 37.5h236q56 0 87 -40t31 -85zM490 485q0 -47 -19.5 -62.5t-63.5 -15.5h-254q-38 0 -57.5 12.5t-19.5 65.5q0 50 32 87.5t85 37.5h176q56 0 88.5 -40t32.5 -85z" />
    <glyph glyph-name="question" unicode="?" horiz-adv-x="537" 
d="M494 506q0 -52 -18.5 -84.5t-65.5 -32.5h-38q-35 0 -54.5 -7.5t-19.5 -30.5t-14 -32t-37 -9q-8 0 -25.5 1t-25.5 1q-70 0 -100.5 11t-30.5 53q0 61 27.5 107.5t85.5 46.5q30 0 55.5 11t25.5 32v14q0 36 -5 60.5t-24 24.5q-20 0 -44.5 -48.5t-71.5 -48.5q-27 0 -40 19
t-13 44q0 67 45.5 104t109.5 37h100q87 0 132.5 -78.5t45.5 -194.5zM347 60q0 -39 -23.5 -50.5t-72.5 -11.5q-16 0 -32 0.5t-33 0.5h-28t-28 -1q-51 0 -78 12t-27 52q0 69 23.5 144t78.5 75h129q40 0 65.5 -70.5t25.5 -150.5z" />
    <glyph glyph-name="A" unicode="A" horiz-adv-x="770" 
d="M716 108q0 -75 -44 -93.5t-126 -18.5q-77 0 -110.5 17t-33.5 79q0 21 11.5 69t11.5 65q0 28 -15.5 47t-34.5 19q-17 0 -29 -18.5t-12 -55.5q0 -21 7 -63t7 -57q0 -33 -11.5 -54.5t-42.5 -36.5q-32 -8 -59 -11.5t-57 -3.5q-26 0 -51 4t-49 13q-24 18 -34 44t-10 57
q0 21 29.5 136.5t76.5 254.5t94 220q20 30 54 44t78 14q46 0 88.5 -12t79 -66t82 -175.5t73 -240.5t27.5 -177zM375 620q-14 0 -24.5 -24t-10.5 -52q0 -23 8 -37.5t25 -14.5q26 0 39 17t13 42q0 27 -14 48t-36 21z" />
    <glyph glyph-name="B" unicode="B" horiz-adv-x="760" 
d="M711 175q0 -68 -25.5 -122t-106.5 -54l-421 1q-51 0 -87.5 31.5t-36.5 80.5q0 25 10 93t10 87q15 74 31.5 150t39.5 148.5t54 134.5q26 37 67.5 50t105.5 13q127 0 191 -62t64 -156q0 -37 -21 -57q-24 -18 -47 -35q67 -35 119.5 -113t52.5 -190zM360 665q-18 0 -27 -23.5
t-9 -51.5q0 -21 10 -33t32 -12q27 0 37 14.5t10 40.5q0 25 -15 45t-38 20zM432 361q0 31 -19.5 60.5t-42.5 29.5q-33 0 -38 -35t-5 -64q0 -15 18 -24.5t35 -9.5q25 0 38.5 12.5t13.5 30.5z" />
    <glyph glyph-name="C" unicode="C" horiz-adv-x="670" 
d="M531 14q-64 -7 -125.5 -11t-126.5 -4q-87 0 -152 7.5t-81 44.5t-16 107q0 99 29.5 224.5t57.5 241.5q28 75 57.5 116.5t87.5 41.5q28 0 56 -0.5t56 -0.5q52 0 94 -43t42 -102q0 -76 -46 -76q-19 -3 -49 31t-48 34q-49 0 -65 -40.5t-16 -104.5q0 -48 23.5 -81t66.5 -33
q45 0 73 53t57 53q33 0 52 -26.5t43 -104t24 -197.5q0 -52 -25 -86t-69 -44z" />
    <glyph glyph-name="D" unicode="D" horiz-adv-x="740" 
d="M694 180q0 -55 -41.5 -104.5t-90.5 -58.5t-103 -13.5t-108 -4.5q-52 0 -131.5 2.5t-93.5 2.5q-47 0 -70 29.5t-23 108.5q0 117 37 270.5t73.5 249t69.5 108t79 12.5q88 0 139 -20.5t86 -67.5q58 -90 95 -164.5t59.5 -161.5t22.5 -188zM367 627q-24 0 -34 -33t-10 -74
q0 -15 -0.5 -29.5t-0.5 -29.5q0 -44 10.5 -68.5t43.5 -27.5q32 0 50.5 23t18.5 58q0 62 -22.5 121.5t-55.5 59.5z" />
    <glyph glyph-name="E" unicode="E" horiz-adv-x="730" 
d="M488 0l-351 -1q-45 0 -74.5 36.5t-29.5 84.5t18.5 158t52 234.5t72.5 209.5q23 33 57 45t81 12h35.5t35.5 1q69 0 102.5 -14.5t33.5 -61.5q0 -45 -84.5 -51t-84.5 -43q0 -29 14 -40t40 -11q12 0 41 3t46 3q28 0 45 -14.5t17 -34.5q0 -34 -15.5 -46.5t-55.5 -12.5h-25.5
t-24.5 1q-36 0 -53 -9.5t-17 -40.5q0 -28 25.5 -38t68.5 -10q21 0 41 1t39 2q71 0 112.5 -67t41.5 -164q0 -72 -42 -102t-162 -30z" />
    <glyph glyph-name="F" unicode="F" horiz-adv-x="590" 
d="M487 655q-14 0 -38 1.5t-25 1.5q-32 0 -50.5 -9t-18.5 -35q0 -28 20 -44t54 -16q7 0 22.5 1t23.5 1q31 0 48.5 -11.5t17.5 -47.5t-12 -48t-39 -12q-6 0 -24 1t-30 1q-27 0 -50.5 -9t-23.5 -24q0 -59 48.5 -154t48.5 -141q0 -60 -32.5 -87.5t-106.5 -27.5q-44 0 -74 -1
t-56 -2q-46 0 -78 4.5t-50.5 19.5t-27 39t-8.5 55q0 106 39.5 274.5t75.5 266.5t83 114.5t129 16.5q65 0 101.5 -3t71.5 -16q14 -7 18.5 -19.5t4.5 -31.5q0 -34 -15 -46t-47 -12z" />
    <glyph glyph-name="G" unicode="G" horiz-adv-x="690" 
d="M650 138q0 -73 -32.5 -106.5t-125.5 -33.5h-45h-39h-34h-29h-25h-22h-19h-17h-15h-13h-12q-18 0 -35.5 0.5t-35.5 0.5h-10q-54 0 -82 56.5t-28 130.5q0 64 27.5 209.5t81.5 266t130 120.5h61h47.5t52 -3.5t64 -44t35.5 -94.5q0 -33 -17.5 -48t-47.5 -15q-19 0 -42 34
t-58 34q-31 0 -45.5 -43.5t-14.5 -99.5q0 -62 16 -96.5t57 -34.5q47 0 60.5 5.5t13.5 34.5q0 11 -43.5 22t-43.5 41q0 22 16 32.5t69 10.5q92 0 146 -122.5t54 -256.5z" />
    <glyph glyph-name="H" unicode="H" horiz-adv-x="790" 
d="M744 96q0 -60 -43.5 -80t-136.5 -20q-79 0 -112.5 22t-33.5 72q0 25 14.5 86t14.5 84q0 30 -13.5 46t-47.5 16q-29 0 -41 -14t-12 -40q0 -25 15 -86t15 -86q0 -65 -39.5 -79t-116.5 -14q-84 0 -128 20.5t-44 99.5q0 181 76.5 426t145.5 245q47 0 65.5 -17t18.5 -49
q0 -20 -10 -66t-10 -68q0 -33 19 -52t46 -19q29 0 49.5 20t20.5 57q0 12 -9.5 63t-9.5 69q0 29 12 43.5t44 14.5q60 0 93.5 -53t57.5 -149t48 -191t38 -169.5t14 -131.5z" />
    <glyph glyph-name="I" unicode="I" horiz-adv-x="460" 
d="M415 107q0 -67 -36 -87.5t-104 -20.5q-13 0 -26.5 0.5t-26.5 0.5h-34q-75 0 -113.5 20t-38.5 91q0 156 49 371t76 255t41 44t27 4q30 0 59.5 -39.5t78 -252.5t48.5 -386z" />
    <glyph glyph-name="J" unicode="J" horiz-adv-x="550" 
d="M414 9q-52 -13 -146 -13q-68 0 -129 9t-85.5 72.5t-24.5 144.5q0 109 18.5 162t47.5 53q25 0 49.5 -32t50.5 -32q38 0 55 102.5t32 202.5q23 107 71 107q64 0 107 -172t43 -377q0 -93 -16 -151t-73 -76z" />
    <glyph glyph-name="K" unicode="K" 
d="M689 80q0 -24 -10.5 -43.5t-31.5 -25t-45 -8t-56 -2.5q-16 0 -48 1t-47 1q-38 0 -55.5 27.5t-17.5 65.5q0 24 9 74.5t9 63.5q0 35 -19.5 58.5t-44.5 23.5q-18 0 -29 -14t-11 -46q0 -26 28.5 -86.5t28.5 -81.5q0 -44 -30 -66t-79 -22q-83 0 -153 7q-35 8 -44.5 46.5
t-9.5 85.5q0 138 19 262t48.5 209.5t64 127.5t65.5 42q56 0 72 -11t16 -53q0 -14 -4 -42t-4 -41q0 -23 10 -35t37 -12q24 0 87.5 98.5t107.5 98.5q29 0 49 -19t20 -42q0 -31 -59 -107t-59 -119q0 -18 55 -106.5t93 -166t38 -143.5z" />
    <glyph glyph-name="L" unicode="L" horiz-adv-x="620" 
d="M579 87q0 -41 -39.5 -62t-89.5 -21l-294 -2q-60 0 -94 32t-34 104q0 108 30.5 263t75.5 266t89 111q53 0 72.5 -41t19.5 -112q0 -38 -2 -69.5t-4 -74.5q0 -74 30.5 -91t101.5 -17q82 0 110 -77.5t28 -208.5z" />
    <glyph glyph-name="M" unicode="M" horiz-adv-x="950" 
d="M904 165q0 -98 -32 -134t-140 -36q-67 0 -106.5 23t-39.5 60q0 18 22.5 74.5t22.5 89.5q0 34 -24 34q-21 0 -42.5 -29.5t-21.5 -72.5q0 -49 -22 -80t-51 -31q-27 0 -44.5 29t-17.5 88q0 36 -20.5 64t-39.5 28q-20 0 -20 -32q0 -25 23 -81.5t23 -89.5q0 -20 -11 -36
t-30 -21q-19 -2 -54 -5t-53 -3q-85 0 -134 33t-49 122q0 106 54 270t93.5 239t66 95t60.5 20q86 0 107 -122.5t58 -122.5q29 0 53 121t86 121q34 0 54.5 -5t74 -88.5t104 -226t50.5 -295.5z" />
    <glyph glyph-name="N" unicode="N" horiz-adv-x="750" 
d="M702 258q0 -137 -33 -199.5t-117 -62.5q-85 0 -110 46.5t-51.5 143t-66.5 96.5q-16 0 -28.5 -8.5t-12.5 -20.5q0 -37 35 -96t35 -89q0 -39 -39.5 -52t-107.5 -13q-17 0 -48 1t-43 1q-44 0 -63 62t-19 136q0 266 51.5 395t82.5 157t74 28q60 0 98 -116t85 -116
q41 0 53 115.5t62 115.5q75 0 119 -185.5t44 -338.5z" />
    <glyph glyph-name="O" unicode="O" 
d="M666 108q0 -113 -160 -113q-35 0 -109 -1t-111 -1q-131 0 -192.5 19.5t-61.5 110.5q0 129 25.5 253.5t58.5 224t84.5 138.5t112.5 39q88 0 148 -16.5t105.5 -122t72.5 -238.5t27 -293zM405 405q0 79 -12.5 134.5t-45.5 55.5q-21 0 -32 -61t-11 -133q0 -17 17 -28t38 -11
q18 0 32 13t14 30z" />
    <glyph glyph-name="P" unicode="P" horiz-adv-x="680" 
d="M606 348q-23 -35 -65.5 -46.5t-98.5 -11.5h-25t-23 1q-12 0 -22.5 -11.5t-10.5 -25.5q0 -31 22 -92t22 -94q0 -30 -22.5 -50.5t-55.5 -20.5h-183q-68 0 -91 29.5t-23 89.5q0 109 15 195.5t43.5 184t50 169t78 93t129.5 21.5q131 0 208.5 -90t77.5 -227q0 -62 -26 -114z
M428 572q0 29 -20 52t-42 23q-25 0 -37 -13.5t-12 -51.5q0 -46 11.5 -54t58.5 -8q16 0 28.5 17.5t12.5 34.5z" />
    <glyph glyph-name="Q" unicode="Q" 
d="M683 133q1 -5 1 -15q0 -37 -16.5 -63t-44 -39.5t-53.5 -24.5q4 -9 25 -43.5t21 -56.5q0 -49 -38 -66.5t-100 -17.5q-76 0 -117.5 18t-41.5 68q0 22 16 56.5t19 45.5q-217 0 -269 32t-52 177q0 66 10.5 134t28 136t41.5 151q23 65 67 112.5t107 47.5h32.5t33.5 1
q61 0 102.5 -13t62.5 -52q51 -80 82.5 -172.5t50 -194t32.5 -221.5zM345 611q-26 0 -36.5 -54.5t-10.5 -122.5q0 -31 9 -46t43 -15q31 0 38 20t7 38q0 60 -13 120t-37 60z" />
    <glyph glyph-name="R" unicode="R" horiz-adv-x="800" 
d="M764 48q0 -27 -40 -39.5t-103 -12.5q-39 0 -84.5 4.5t-90.5 11.5q-21 8 -28 35.5t-7 66.5q0 27 3.5 74.5t3.5 63.5q0 32 -11.5 49t-27.5 17q-18 0 -31.5 -15.5t-13.5 -40.5q0 -26 17.5 -100t17.5 -107q0 -23 -15.5 -39.5t-37.5 -13.5q-23 0 -63 -1t-58 -1q-45 0 -60 1.5
t-52 7.5q-28 9 -37.5 35.5t-9.5 63.5q0 95 28.5 270.5t55 260t60 112t76.5 32.5q19 0 62.5 1t65.5 1q105 0 169.5 -60.5t64.5 -160.5q0 -61 -39.5 -80t-39.5 -31q0 -5 63.5 -73t112.5 -151.5t49 -180.5zM389 646q-12 28 -43 28q-4 0 -14 -2q-11 -5 -16 -21t-7 -24
q3 -24 9 -39.5t21 -24.5q12 -2 21 -2q11 0 17.5 2.5t9.5 10.5q10 11 10 33q0 23 -8 39z" />
    <glyph glyph-name="S" unicode="S" horiz-adv-x="690" 
d="M647 188q0 -97 -44.5 -144t-121.5 -47h-17q-7 1 -11 1q-14 3 -29.5 4t-36.5 1q-36 0 -93 -3t-58 -3q-87 0 -146 48.5t-59 138.5q0 81 30 142t107 61q41 0 68.5 -40t53.5 -40h13q29 0 43 8t14 37q0 28 -78 49.5t-125.5 53.5t-47.5 127q0 82 57.5 138.5t160.5 56.5
q102 0 172.5 -52t70.5 -149q0 -15 -14 -32.5t-29 -17.5q-51 0 -76.5 43.5t-46.5 52.5q-21 7 -43 7q-19 0 -29.5 -5.5t-10.5 -20.5q0 -56 102.5 -95.5t163 -95.5t60.5 -224z" />
    <glyph glyph-name="T" unicode="T" horiz-adv-x="670" 
d="M634 582q0 -18 -8.5 -33t-25.5 -15q-19 0 -63.5 15.5t-59.5 15.5q-12 0 -30 -13t-18 -25q0 -51 25 -118.5t49 -131.5q26 -82 26 -163q0 -47 -17.5 -75t-61 -33t-72 -7.5t-63.5 -2.5q-42 0 -71.5 4.5t-57 15.5t-33.5 33.5t-6 55.5q0 71 30.5 180t63.5 221q0 31 -13.5 45.5
t-45.5 14.5q-12 0 -46.5 -19t-45.5 -19q-33 0 -46.5 29.5t-13.5 72.5q0 49 32 87t81 49q68 0 212 2t157 2q56 0 89 -58t33 -130z" />
    <glyph glyph-name="U" unicode="U" horiz-adv-x="730" 
d="M693 183q0 -104 -64.5 -147.5t-169.5 -43.5q-49 0 -150.5 6t-113.5 6q-88 0 -125 62.5t-37 152.5q0 156 66 356t123 200q48 0 67.5 -21t19.5 -58q0 -38 -18.5 -112t-18.5 -107q0 -42 24.5 -65.5t58.5 -23.5q33 0 58 22t25 60q0 24 -15.5 102t-15.5 109q0 35 14.5 63
t45.5 28q76 0 126.5 -119.5t75 -265.5t24.5 -204z" />
    <glyph glyph-name="V" unicode="V" horiz-adv-x="680" 
d="M645 630q0 -78 -47 -244t-86.5 -267.5t-63.5 -113t-124 -11.5q-91 0 -120.5 32t-62 141.5t-55.5 196.5t-39 180t-16 190q9 20 21.5 30.5t37.5 10.5q53 0 93 -79q32 -74 65 -147q43 -80 102 -80q37 0 69.5 76.5t62.5 151.5q38 80 84 80q50 0 64.5 -30t14.5 -87v-30z" />
    <glyph glyph-name="W" unicode="W" horiz-adv-x="950" 
d="M604 -13q-57 0 -83.5 25t-26.5 60q0 20 12 62.5t12 58.5q0 6 -2 20q-17 30 -47 30q-11 0 -19 -4q-11 -12 -15.5 -27.5t-4.5 -35.5t4.5 -58.5t4.5 -42.5q0 -36 -39.5 -59.5t-96.5 -23.5q-98 0 -155 103.5t-81 235.5t-24 203q0 104 36 173t119 69q42 0 78 -24.5t32 -58.5
q0 -18 -16.5 -59.5t-16.5 -57.5q0 -38 16 -53t43 -15q33 0 53 132.5t90 132.5q78 0 85 -132.5t61 -132.5q24 0 34.5 11.5t10.5 31.5q0 21 -15 74t-15 74q0 28 29.5 49t76.5 21q74 0 115.5 -56.5t41.5 -136.5q0 -127 -24.5 -259.5t-91 -231t-181.5 -98.5z" />
    <glyph glyph-name="X" unicode="X" horiz-adv-x="790" 
d="M752 101q0 -63 -36 -86.5t-146 -23.5q-80 0 -113 20.5t-33 72.5q0 21 6.5 74.5t6.5 65.5q0 29 -10 44.5t-35 15.5q-24 0 -32.5 -13t-8.5 -39q0 -21 7.5 -73.5t7.5 -74.5q0 -54 -28.5 -74t-80.5 -20q-20 0 -66 4t-69 4q-39 0 -62.5 37t-23.5 81q0 73 54 163q58 88 117 176
q0 61 -50.5 144.5t-50.5 117.5q0 23 19 42t40 19q66 0 130 -85t107 -85q27 0 96.5 83.5t121.5 83.5q29 0 48.5 -22.5t19.5 -52.5q-2 -10 -52.5 -101.5t-50.5 -130.5q0 -30 56.5 -111t83.5 -131.5t27 -124.5z" />
    <glyph glyph-name="Y" unicode="Y" horiz-adv-x="670" 
d="M637 702q0 -46 -45.5 -108t-88.5 -119q-47 -69 -47 -124q0 -33 27.5 -118.5t27.5 -130.5q0 -58 -35.5 -86t-148.5 -28t-148.5 27.5t-35.5 89.5q0 41 24.5 132t24.5 123q0 51 -40.5 113.5t-79.5 120.5q-42 71 -42 131q0 19 18 33t42 14q63 0 128.5 -83.5t97.5 -83.5
q48 0 123.5 85.5t118.5 85.5q29 0 54 -20.5t25 -53.5z" />
    <glyph glyph-name="Z" unicode="Z" horiz-adv-x="660" 
d="M625 111q0 -65 -44.5 -88.5t-129.5 -23.5h-137h-29h-25q-91 0 -145 5t-70 39.5t-16 73.5q0 55 16.5 113t44.5 123q23 39 115 112.5t92 101.5q0 43 -17 56.5t-48 13.5q-7 0 -20.5 -1t-18.5 -1q-25 0 -37 9.5t-12 39.5q0 7 -0.5 14.5t-0.5 15.5q0 21 4 32.5t27.5 17.5
t66.5 9t83 3q22 0 69 -1t72 -1q33 0 60.5 -26.5t27.5 -65.5q0 -38 -54 -109t-54 -87q0 -60 57.5 -84t78 -81.5t32.5 -113.5t12 -96z" />
    <glyph glyph-name="underscore" unicode="_" horiz-adv-x="500" 
d="M502 -137h-504v74h504v-74z" />
    <glyph glyph-name="a" unicode="a" horiz-adv-x="770" 
d="M716 108q0 -75 -44 -93.5t-126 -18.5q-77 0 -110.5 17t-33.5 79q0 21 11.5 69t11.5 65q0 28 -15.5 47t-34.5 19q-17 0 -29 -18.5t-12 -55.5q0 -21 7 -63t7 -57q0 -33 -11.5 -54.5t-42.5 -36.5q-32 -8 -59 -11.5t-57 -3.5q-26 0 -51 4t-49 13q-24 18 -34 44t-10 57
q0 21 29.5 136.5t76.5 254.5t94 220q20 30 54 44t78 14q46 0 88.5 -12t79 -66t82 -175.5t73 -240.5t27.5 -177zM375 620q-14 0 -24.5 -24t-10.5 -52q0 -23 8 -37.5t25 -14.5q26 0 39 17t13 42q0 27 -14 48t-36 21z" />
    <glyph glyph-name="b" unicode="b" horiz-adv-x="760" 
d="M711 175q0 -68 -25.5 -122t-106.5 -54l-421 1q-51 0 -87.5 31.5t-36.5 80.5q0 25 10 93t10 87q15 74 31.5 150t39.5 148.5t54 134.5q26 37 67.5 50t105.5 13q127 0 191 -62t64 -156q0 -37 -21 -57q-24 -18 -47 -35q67 -35 119.5 -113t52.5 -190zM360 665q-18 0 -27 -23.5
t-9 -51.5q0 -21 10 -33t32 -12q27 0 37 14.5t10 40.5q0 25 -15 45t-38 20zM432 361q0 31 -19.5 60.5t-42.5 29.5q-33 0 -38 -35t-5 -64q0 -15 18 -24.5t35 -9.5q25 0 38.5 12.5t13.5 30.5z" />
    <glyph glyph-name="c" unicode="c" horiz-adv-x="670" 
d="M531 14q-64 -7 -125.5 -11t-126.5 -4q-87 0 -152 7.5t-81 44.5t-16 107q0 99 29.5 224.5t57.5 241.5q28 75 57.5 116.5t87.5 41.5q28 0 56 -0.5t56 -0.5q52 0 94 -43t42 -102q0 -76 -46 -76q-19 -3 -49 31t-48 34q-49 0 -65 -40.5t-16 -104.5q0 -48 23.5 -81t66.5 -33
q45 0 73 53t57 53q33 0 52 -26.5t43 -104t24 -197.5q0 -52 -25 -86t-69 -44z" />
    <glyph glyph-name="d" unicode="d" horiz-adv-x="740" 
d="M694 180q0 -55 -41.5 -104.5t-90.5 -58.5t-103 -13.5t-108 -4.5q-52 0 -131.5 2.5t-93.5 2.5q-47 0 -70 29.5t-23 108.5q0 117 37 270.5t73.5 249t69.5 108t79 12.5q88 0 139 -20.5t86 -67.5q58 -90 95 -164.5t59.5 -161.5t22.5 -188zM367 627q-24 0 -34 -33t-10 -74
q0 -15 -0.5 -29.5t-0.5 -29.5q0 -44 10.5 -68.5t43.5 -27.5q32 0 50.5 23t18.5 58q0 62 -22.5 121.5t-55.5 59.5z" />
    <glyph glyph-name="e" unicode="e" horiz-adv-x="730" 
d="M488 0l-351 -1q-45 0 -74.5 36.5t-29.5 84.5t18.5 158t52 234.5t72.5 209.5q23 33 57 45t81 12h35.5t35.5 1q69 0 102.5 -14.5t33.5 -61.5q0 -45 -84.5 -51t-84.5 -43q0 -29 14 -40t40 -11q12 0 41 3t46 3q28 0 45 -14.5t17 -34.5q0 -34 -15.5 -46.5t-55.5 -12.5h-25.5
t-24.5 1q-36 0 -53 -9.5t-17 -40.5q0 -28 25.5 -38t68.5 -10q21 0 41 1t39 2q71 0 112.5 -67t41.5 -164q0 -72 -42 -102t-162 -30z" />
    <glyph glyph-name="f" unicode="f" horiz-adv-x="590" 
d="M487 655q-14 0 -38 1.5t-25 1.5q-32 0 -50.5 -9t-18.5 -35q0 -28 20 -44t54 -16q7 0 22.5 1t23.5 1q31 0 48.5 -11.5t17.5 -47.5t-12 -48t-39 -12q-6 0 -24 1t-30 1q-27 0 -50.5 -9t-23.5 -24q0 -59 48.5 -154t48.5 -141q0 -60 -32.5 -87.5t-106.5 -27.5q-44 0 -74 -1
t-56 -2q-46 0 -78 4.5t-50.5 19.5t-27 39t-8.5 55q0 106 39.5 274.5t75.5 266.5t83 114.5t129 16.5q65 0 101.5 -3t71.5 -16q14 -7 18.5 -19.5t4.5 -31.5q0 -34 -15 -46t-47 -12z" />
    <glyph glyph-name="g" unicode="g" horiz-adv-x="690" 
d="M650 138q0 -73 -32.5 -106.5t-125.5 -33.5h-45h-39h-34h-29h-25h-22h-19h-17h-15h-13h-12q-18 0 -35.5 0.5t-35.5 0.5h-10q-54 0 -82 56.5t-28 130.5q0 64 27.5 209.5t81.5 266t130 120.5h61h47.5t52 -3.5t64 -44t35.5 -94.5q0 -33 -17.5 -48t-47.5 -15q-19 0 -42 34
t-58 34q-31 0 -45.5 -43.5t-14.5 -99.5q0 -62 16 -96.5t57 -34.5q47 0 60.5 5.5t13.5 34.5q0 11 -43.5 22t-43.5 41q0 22 16 32.5t69 10.5q92 0 146 -122.5t54 -256.5z" />
    <glyph glyph-name="h" unicode="h" horiz-adv-x="790" 
d="M744 96q0 -60 -43.5 -80t-136.5 -20q-79 0 -112.5 22t-33.5 72q0 25 14.5 86t14.5 84q0 30 -13.5 46t-47.5 16q-29 0 -41 -14t-12 -40q0 -25 15 -86t15 -86q0 -65 -39.5 -79t-116.5 -14q-84 0 -128 20.5t-44 99.5q0 181 76.5 426t145.5 245q47 0 65.5 -17t18.5 -49
q0 -20 -10 -66t-10 -68q0 -33 19 -52t46 -19q29 0 49.5 20t20.5 57q0 12 -9.5 63t-9.5 69q0 29 12 43.5t44 14.5q60 0 93.5 -53t57.5 -149t48 -191t38 -169.5t14 -131.5z" />
    <glyph glyph-name="i" unicode="i" horiz-adv-x="460" 
d="M415 107q0 -67 -36 -87.5t-104 -20.5q-13 0 -26.5 0.5t-26.5 0.5h-34q-75 0 -113.5 20t-38.5 91q0 156 49 371t76 255t41 44t27 4q30 0 59.5 -39.5t78 -252.5t48.5 -386z" />
    <glyph glyph-name="j" unicode="j" horiz-adv-x="550" 
d="M414 9q-52 -13 -146 -13q-68 0 -129 9t-85.5 72.5t-24.5 144.5q0 109 18.5 162t47.5 53q25 0 49.5 -32t50.5 -32q38 0 55 102.5t32 202.5q23 107 71 107q64 0 107 -172t43 -377q0 -93 -16 -151t-73 -76z" />
    <glyph glyph-name="k" unicode="k" 
d="M689 80q0 -24 -10.5 -43.5t-31.5 -25t-45 -8t-56 -2.5q-16 0 -48 1t-47 1q-38 0 -55.5 27.5t-17.5 65.5q0 24 9 74.5t9 63.5q0 35 -19.5 58.5t-44.5 23.5q-18 0 -29 -14t-11 -46q0 -26 28.5 -86.5t28.5 -81.5q0 -44 -30 -66t-79 -22q-83 0 -153 7q-35 8 -44.5 46.5
t-9.5 85.5q0 138 19 262t48.5 209.5t64 127.5t65.5 42q56 0 72 -11t16 -53q0 -14 -4 -42t-4 -41q0 -23 10 -35t37 -12q24 0 87.5 98.5t107.5 98.5q29 0 49 -19t20 -42q0 -31 -59 -107t-59 -119q0 -18 55 -106.5t93 -166t38 -143.5z" />
    <glyph glyph-name="l" unicode="l" horiz-adv-x="620" 
d="M579 87q0 -41 -39.5 -62t-89.5 -21l-294 -2q-60 0 -94 32t-34 104q0 108 30.5 263t75.5 266t89 111q53 0 72.5 -41t19.5 -112q0 -38 -2 -69.5t-4 -74.5q0 -74 30.5 -91t101.5 -17q82 0 110 -77.5t28 -208.5z" />
    <glyph glyph-name="m" unicode="m" horiz-adv-x="950" 
d="M904 165q0 -98 -32 -134t-140 -36q-67 0 -106.5 23t-39.5 60q0 18 22.5 74.5t22.5 89.5q0 34 -24 34q-21 0 -42.5 -29.5t-21.5 -72.5q0 -49 -22 -80t-51 -31q-27 0 -44.5 29t-17.5 88q0 36 -20.5 64t-39.5 28q-20 0 -20 -32q0 -25 23 -81.5t23 -89.5q0 -20 -11 -36
t-30 -21q-19 -2 -54 -5t-53 -3q-85 0 -134 33t-49 122q0 106 54 270t93.5 239t66 95t60.5 20q86 0 107 -122.5t58 -122.5q29 0 53 121t86 121q34 0 54.5 -5t74 -88.5t104 -226t50.5 -295.5z" />
    <glyph glyph-name="n" unicode="n" horiz-adv-x="750" 
d="M702 258q0 -137 -33 -199.5t-117 -62.5q-85 0 -110 46.5t-51.5 143t-66.5 96.5q-16 0 -28.5 -8.5t-12.5 -20.5q0 -37 35 -96t35 -89q0 -39 -39.5 -52t-107.5 -13q-17 0 -48 1t-43 1q-44 0 -63 62t-19 136q0 266 51.5 395t82.5 157t74 28q60 0 98 -116t85 -116
q41 0 53 115.5t62 115.5q75 0 119 -185.5t44 -338.5z" />
    <glyph glyph-name="o" unicode="o" 
d="M666 108q0 -113 -160 -113q-35 0 -109 -1t-111 -1q-131 0 -192.5 19.5t-61.5 110.5q0 129 25.5 253.5t58.5 224t84.5 138.5t112.5 39q88 0 148 -16.5t105.5 -122t72.5 -238.5t27 -293zM405 405q0 79 -12.5 134.5t-45.5 55.5q-21 0 -32 -61t-11 -133q0 -17 17 -28t38 -11
q18 0 32 13t14 30z" />
    <glyph glyph-name="p" unicode="p" horiz-adv-x="680" 
d="M606 348q-23 -35 -65.5 -46.5t-98.5 -11.5h-25t-23 1q-12 0 -22.5 -11.5t-10.5 -25.5q0 -31 22 -92t22 -94q0 -30 -22.5 -50.5t-55.5 -20.5h-183q-68 0 -91 29.5t-23 89.5q0 109 15 195.5t43.5 184t50 169t78 93t129.5 21.5q131 0 208.5 -90t77.5 -227q0 -62 -26 -114z
M428 572q0 29 -20 52t-42 23q-25 0 -37 -13.5t-12 -51.5q0 -46 11.5 -54t58.5 -8q16 0 28.5 17.5t12.5 34.5z" />
    <glyph glyph-name="q" unicode="q" 
d="M683 133q1 -5 1 -15q0 -37 -16.5 -63t-44 -39.5t-53.5 -24.5q4 -9 25 -43.5t21 -56.5q0 -49 -38 -66.5t-100 -17.5q-76 0 -117.5 18t-41.5 68q0 22 16 56.5t19 45.5q-217 0 -269 32t-52 177q0 66 10.5 134t28 136t41.5 151q23 65 67 112.5t107 47.5h32.5t33.5 1
q61 0 102.5 -13t62.5 -52q51 -80 82.5 -172.5t50 -194t32.5 -221.5zM345 611q-26 0 -36.5 -54.5t-10.5 -122.5q0 -31 9 -46t43 -15q31 0 38 20t7 38q0 60 -13 120t-37 60z" />
    <glyph glyph-name="r" unicode="r" horiz-adv-x="800" 
d="M764 48q0 -27 -40 -39.5t-103 -12.5q-39 0 -84.5 4.5t-90.5 11.5q-21 8 -28 35.5t-7 66.5q0 27 3.5 74.5t3.5 63.5q0 32 -11.5 49t-27.5 17q-18 0 -31.5 -15.5t-13.5 -40.5q0 -26 17.5 -100t17.5 -107q0 -23 -15.5 -39.5t-37.5 -13.5q-23 0 -63 -1t-58 -1q-45 0 -60 1.5
t-52 7.5q-28 9 -37.5 35.5t-9.5 63.5q0 95 28.5 270.5t55 260t60 112t76.5 32.5q19 0 62.5 1t65.5 1q105 0 169.5 -60.5t64.5 -160.5q0 -61 -39.5 -80t-39.5 -31q0 -5 63.5 -73t112.5 -151.5t49 -180.5zM389 646q-12 28 -43 28q-4 0 -14 -2q-11 -5 -16 -21t-7 -24
q3 -24 9 -39.5t21 -24.5q12 -2 21 -2q11 0 17.5 2.5t9.5 10.5q10 11 10 33q0 23 -8 39z" />
    <glyph glyph-name="s" unicode="s" horiz-adv-x="690" 
d="M647 188q0 -97 -44.5 -144t-121.5 -47h-17q-7 1 -11 1q-14 3 -29.5 4t-36.5 1q-36 0 -93 -3t-58 -3q-87 0 -146 48.5t-59 138.5q0 81 30 142t107 61q41 0 68.5 -40t53.5 -40h13q29 0 43 8t14 37q0 28 -78 49.5t-125.5 53.5t-47.5 127q0 82 57.5 138.5t160.5 56.5
q102 0 172.5 -52t70.5 -149q0 -15 -14 -32.5t-29 -17.5q-51 0 -76.5 43.5t-46.5 52.5q-21 7 -43 7q-19 0 -29.5 -5.5t-10.5 -20.5q0 -56 102.5 -95.5t163 -95.5t60.5 -224z" />
    <glyph glyph-name="t" unicode="t" horiz-adv-x="670" 
d="M634 582q0 -18 -8.5 -33t-25.5 -15q-19 0 -63.5 15.5t-59.5 15.5q-12 0 -30 -13t-18 -25q0 -51 25 -118.5t49 -131.5q26 -82 26 -163q0 -47 -17.5 -75t-61 -33t-72 -7.5t-63.5 -2.5q-42 0 -71.5 4.5t-57 15.5t-33.5 33.5t-6 55.5q0 71 30.5 180t63.5 221q0 31 -13.5 45.5
t-45.5 14.5q-12 0 -46.5 -19t-45.5 -19q-33 0 -46.5 29.5t-13.5 72.5q0 49 32 87t81 49q68 0 212 2t157 2q56 0 89 -58t33 -130z" />
    <glyph glyph-name="u" unicode="u" horiz-adv-x="730" 
d="M693 183q0 -104 -64.5 -147.5t-169.5 -43.5q-49 0 -150.5 6t-113.5 6q-88 0 -125 62.5t-37 152.5q0 156 66 356t123 200q48 0 67.5 -21t19.5 -58q0 -38 -18.5 -112t-18.5 -107q0 -42 24.5 -65.5t58.5 -23.5q33 0 58 22t25 60q0 24 -15.5 102t-15.5 109q0 35 14.5 63
t45.5 28q76 0 126.5 -119.5t75 -265.5t24.5 -204z" />
    <glyph glyph-name="v" unicode="v" horiz-adv-x="680" 
d="M645 630q0 -78 -47 -244t-86.5 -267.5t-63.5 -113t-124 -11.5q-91 0 -120.5 32t-62 141.5t-55.5 196.5t-39 180t-16 190q9 20 21.5 30.5t37.5 10.5q53 0 93 -79q32 -74 65 -147q43 -80 102 -80q37 0 69.5 76.5t62.5 151.5q38 80 84 80q50 0 64.5 -30t14.5 -87v-30z" />
    <glyph glyph-name="w" unicode="w" horiz-adv-x="950" 
d="M604 -13q-57 0 -83.5 25t-26.5 60q0 20 12 62.5t12 58.5q0 6 -2 20q-17 30 -47 30q-11 0 -19 -4q-11 -12 -15.5 -27.5t-4.5 -35.5t4.5 -58.5t4.5 -42.5q0 -36 -39.5 -59.5t-96.5 -23.5q-98 0 -155 103.5t-81 235.5t-24 203q0 104 36 173t119 69q42 0 78 -24.5t32 -58.5
q0 -18 -16.5 -59.5t-16.5 -57.5q0 -38 16 -53t43 -15q33 0 53 132.5t90 132.5q78 0 85 -132.5t61 -132.5q24 0 34.5 11.5t10.5 31.5q0 21 -15 74t-15 74q0 28 29.5 49t76.5 21q74 0 115.5 -56.5t41.5 -136.5q0 -127 -24.5 -259.5t-91 -231t-181.5 -98.5z" />
    <glyph glyph-name="x" unicode="x" horiz-adv-x="790" 
d="M752 101q0 -63 -36 -86.5t-146 -23.5q-80 0 -113 20.5t-33 72.5q0 21 6.5 74.5t6.5 65.5q0 29 -10 44.5t-35 15.5q-24 0 -32.5 -13t-8.5 -39q0 -21 7.5 -73.5t7.5 -74.5q0 -54 -28.5 -74t-80.5 -20q-20 0 -66 4t-69 4q-39 0 -62.5 37t-23.5 81q0 73 54 163q58 88 117 176
q0 61 -50.5 144.5t-50.5 117.5q0 23 19 42t40 19q66 0 130 -85t107 -85q27 0 96.5 83.5t121.5 83.5q29 0 48.5 -22.5t19.5 -52.5q-2 -10 -52.5 -101.5t-50.5 -130.5q0 -30 56.5 -111t83.5 -131.5t27 -124.5z" />
    <glyph glyph-name="y" unicode="y" horiz-adv-x="670" 
d="M637 702q0 -46 -45.5 -108t-88.5 -119q-47 -69 -47 -124q0 -33 27.5 -118.5t27.5 -130.5q0 -58 -35.5 -86t-148.5 -28t-148.5 27.5t-35.5 89.5q0 41 24.5 132t24.5 123q0 51 -40.5 113.5t-79.5 120.5q-42 71 -42 131q0 19 18 33t42 14q63 0 128.5 -83.5t97.5 -83.5
q48 0 123.5 85.5t118.5 85.5q29 0 54 -20.5t25 -53.5z" />
    <glyph glyph-name="z" unicode="z" horiz-adv-x="660" 
d="M625 111q0 -65 -44.5 -88.5t-129.5 -23.5h-137h-29h-25q-91 0 -145 5t-70 39.5t-16 73.5q0 55 16.5 113t44.5 123q23 39 115 112.5t92 101.5q0 43 -17 56.5t-48 13.5q-7 0 -20.5 -1t-18.5 -1q-25 0 -37 9.5t-12 39.5q0 7 -0.5 14.5t-0.5 15.5q0 21 4 32.5t27.5 17.5
t66.5 9t83 3q22 0 69 -1t72 -1q33 0 60.5 -26.5t27.5 -65.5q0 -38 -54 -109t-54 -87q0 -60 57.5 -84t78 -81.5t32.5 -113.5t12 -96z" />
    <glyph glyph-name="bar" unicode="|" horiz-adv-x="420" 
d="M327 -20q0 -58 -15.5 -74t-100.5 -16q-73 0 -91 19t-18 75q0 69 10.5 248.5t29.5 343t38 194t36 30.5q18 0 37 -26.5t37.5 -189t27.5 -346t9 -258.5z" />
    <glyph glyph-name="dagger" unicode="&#x2020;" horiz-adv-x="500" 
d="M310 584l74 -1q32 0 51.5 -26.5t19.5 -65.5q0 -14 -5 -28.5t-15 -14.5q-14 0 -38.5 8.5t-32.5 8.5t-24 -7.5t-16 -14.5q0 -55 -14.5 -194t-27 -230t-28.5 -91q-17 0 -30.5 69.5t-26.5 231.5t-13 201q0 17 -13.5 26.5t-32.5 9.5q-9 0 -27 -11t-26 -11q-19 0 -27.5 17.5
t-8.5 40.5q0 27 19 50t47 29l86 2q0 78 14.5 130.5t28.5 52.5h29q11 0 24 -54t13 -128z" />
    <glyph glyph-name="degree" unicode="&#xb0;" horiz-adv-x="250" 
d="M223 687q0 -40 -29.5 -68.5t-71.5 -28.5q-44 0 -75 30t-31 74q0 45 28 74t72 29q45 0 76 -32t31 -78zM168 690q0 24 -13 38t-35 14q-47 0 -47 -49q0 -22 13 -36t36 -14q20 0 33 13t13 34z" />
    <glyph glyph-name="cent" unicode="&#xa2;" horiz-adv-x="560" 
d="M174 111l-67 6q-38 5 -51.5 35t-13.5 86q0 80 23.5 182t46.5 196q26 65 47.5 96.5t70.5 31.5h7q4 19 11 31.5t12.5 18t15.5 5.5t16 -4.5t12 -18t11 -33.5h5q43 0 76.5 -34.5t33.5 -83.5q0 -61 -37 -61q-16 -3 -40 24.5t-39 27.5q-39 0 -52 -33.5t-13 -83.5
q0 -40 18 -66.5t54 -26.5q38 0 60.5 43.5t45.5 43.5q20 0 36.5 -16.5t30.5 -60t21.5 -93t7.5 -96.5q0 -43 -20 -70t-56 -35l-72 -7v-39q0 -52 -14 -66.5t-90 -14.5q-66 0 -82 16t-16 68z" />
    <glyph glyph-name="sterling" unicode="&#xa3;" horiz-adv-x="610" 
d="M346 357q17 -38 43 -59t58 -21q88 0 119 -43t31 -153q0 -41 -39.5 -62t-89.5 -21q-52 0 -162.5 2t-119.5 2q-60 0 -94 32t-34 104q0 47 8 100t24 119h-19q-30 0 -46 10t-16 52q0 40 26 70t68 30h36q41 117 87 194t81 77q33 0 46.5 -17t13.5 -50t-20 -109.5t-23 -94.5h63
q45 0 71 -31.5t26 -68.5q0 -38 -15.5 -50t-50.5 -12h-72z" />
    <glyph glyph-name="bullet" unicode="&#x2022;" horiz-adv-x="450" 
d="M414 422q0 -79 -54 -135t-132 -56q-80 0 -136.5 54.5t-56.5 133.5t54.5 135.5t132.5 56.5q80 0 136 -55t56 -134z" />
    <glyph glyph-name="registered" unicode="&#xae;" horiz-adv-x="770" 
d="M721 418q0 -139 -95 -237t-231 -98q-138 0 -237.5 96.5t-99.5 232.5q0 138 95 237t232 99q138 0 237 -97t99 -233zM673 418q0 115 -85.5 197.5t-202.5 82.5q-115 0 -197.5 -84.5t-82.5 -201.5q0 -116 85 -198t203 -82q117 0 198.5 83.5t81.5 202.5zM576 261
q0 -13 -20 -19.5t-51 -6.5q-25 0 -40.5 1.5t-47.5 6.5q-10 4 -13.5 18t-3.5 33l3 69q0 16 -6 24.5t-14 8.5q-22 0 -22 -28q0 -8 9 -48t9 -55q0 -11 -8 -19.5t-19 -7.5q-15 0 -29.5 -0.5t-28.5 -0.5t-28 1t-29 4.5t-20 16.5t-5 32q0 51 14 136t27.5 127.5t30.5 57.5t38 17
l64 1q53 0 85 -30t32 -81q0 -33 -19.5 -40.5t-19.5 -14.5q44 -42 78 -96t34 -107zM389 560q-7 18 -29 13q-6 -3 -11 -22q0 -24 9 -28.5t16 -4.5q12 0 14 6q5 7 5 16q0 10 -4 20z" />
    <glyph glyph-name="copyright" unicode="&#xa9;" horiz-adv-x="770" 
d="M721 418q0 -139 -95 -237t-231 -98q-138 0 -237.5 96.5t-99.5 232.5q0 138 95 237t232 99q138 0 237 -97t99 -233zM673 418q0 115 -85.5 197.5t-202.5 82.5q-115 0 -197.5 -84.5t-82.5 -201.5q0 -116 85 -198t203 -82q117 0 198.5 83.5t81.5 202.5zM536 303
q0 -53 -47 -65q-64 -8 -127 -8q-16 0 -29.5 0.5t-45.5 4t-40.5 23t-8.5 52.5q0 52 14.5 113.5t29.5 119.5q13 37 28 58t44 21h56q27 0 47.5 -21.5t20.5 -51.5q0 -38 -23 -38q-8 -1 -24.5 16t-23.5 17q-19 0 -30 -15.5t-11 -57.5q0 -25 11.5 -41t33.5 -16q23 0 36.5 26.5
t28.5 26.5q17 0 26 -12t16.5 -37.5t12.5 -55t5 -59.5z" />
    <glyph glyph-name="trademark" unicode="&#x2122;" horiz-adv-x="800" 
d="M740 468q0 -50 -15.5 -68t-70.5 -18q-33 0 -53 12t-20 30q0 12 11.5 38t11.5 44q0 17 -12 17q-11 0 -21.5 -14.5t-10.5 -36.5q0 -25 -11 -40t-26 -15q-13 0 -22 14.5t-9 43.5q0 19 -9.5 32.5t-20.5 13.5q-10 0 -10 -16q0 -14 11.5 -41.5t11.5 -43.5q0 -24 -17 -27.5
t-29 -4.5t-28 -1q-42 0 -66.5 17t-24.5 61q0 52 27 134.5t58 142.5q9 15 22 25t30 10q43 0 53 -61.5t29 -61.5q15 0 27 60.5t43 60.5q17 0 27 -2.5t37.5 -44.5t52 -111.5t24.5 -148.5zM323 676q0 -9 -4.5 -16.5t-12.5 -7.5q-12 0 -34.5 8t-26.5 8q-6 0 -15 -6.5t-9 -12.5
q0 -28 25 -92t25 -115q0 -23 -9 -37t-38 -18t-60 -4q-39 0 -59 8t-22.5 18.5t-2.5 28.5q0 37 15 90.5t32 109.5q0 30 -30 30q-6 0 -23 -9.5t-23 -9.5q-17 0 -23.5 14.5t-6.5 36.5q0 25 16 43.5t41 24.5q33 0 92.5 1t91.5 1q29 0 45 -28.5t16 -65.5z" />
    <glyph glyph-name="AE" unicode="&#xc6;" horiz-adv-x="1170" 
d="M505 620q-17 0 -34 -32.5t-17 -62.5q0 -33 25 -33q30 0 47.5 23t17.5 53q0 23 -10 37.5t-29 14.5zM649 747q23 18 50 25t65 7h35.5t35.5 1q69 0 102.5 -14.5t33.5 -61.5q0 -45 -84.5 -51t-84.5 -43q0 -29 14 -40t40 -11q12 0 41 3t46 3q28 0 45 -14.5t17 -34.5
q0 -34 -15.5 -46.5t-55.5 -12.5h-25.5t-24.5 1q-36 0 -53 -9.5t-17 -40.5q0 -28 25.5 -38t68.5 -10q21 0 41 1t39 2q71 0 112.5 -67t41.5 -164q0 -72 -42 -102t-162 -30l-370 -4q-70 0 -101.5 12t-31.5 57q0 12 4 30t24.5 67t22.5 59t2 20q0 23 -11 37t-28 14q-18 0 -33 -18
t-19.5 -42t-5.5 -44.5t-1 -30.5v-15q0 -25 -5.5 -51t-20.5 -48t-48 -36q-32 -7 -60.5 -11t-57.5 -4q-55 0 -98 17q-15 12 -21.5 28.5t-6.5 36.5v21q3 11 5 23.5t55 136t119.5 252.5t111 186.5t81 71.5t80.5 14q38 0 71.5 -7.5t53.5 -24.5z" />
    <glyph glyph-name="Oslash" unicode="&#xd8;" horiz-adv-x="770" 
d="M461 405q0 79 -12.5 134.5t-45.5 55.5q-21 0 -32 -61t-11 -133q0 -17 17 -28t38 -11q18 0 32 13t14 30zM183 5q-28 -7 -82 -7q-81 0 -81 28q0 10 8.5 26t23.5 40l36 54q0 86 12.5 167t32 153.5t46 153t78 119.5t112.5 39q60 0 100 -5t76 -24q18 18 34 30.5t25 16.5t17 4
q11 0 15.5 -5t4.5 -12q0 -21 -37 -101q66 -153 92 -283.5t26 -290.5q0 -113 -160 -113q-35 0 -109 -1t-111 -1q-66 0 -98.5 2.5t-60.5 9.5z" />
    <glyph glyph-name="yen" unicode="&#xa5;" horiz-adv-x="670" 
d="M475 261q22 -69 29 -96.5t7 -62.5q0 -58 -35.5 -86t-148.5 -28t-148.5 27.5t-35.5 89.5q0 29 4 48t28 108h-50q-30 0 -46 10t-16 52q0 40 26 70t68 30h23q-10 25 -80 129t-70 173q0 19 18 33t42 14q63 0 128.5 -83.5t97.5 -83.5q48 0 123.5 85.5t118.5 85.5
q29 0 54 -20.5t25 -53.5q0 -55 -72.5 -147t-90.5 -132h9q45 0 71 -31.5t26 -68.5q0 -38 -15.5 -50t-50.5 -12h-39z" />
    <glyph glyph-name="ellipsis" unicode="&#x2026;" horiz-adv-x="1500" 
d="M375 94q0 -66 -29.5 -80t-145.5 -14h-38q-70 0 -99.5 14t-29.5 66q0 135 38.5 168.5t130.5 33.5q93 0 133 -29t40 -159zM879 94q0 -66 -29.5 -80t-145.5 -14h-38q-70 0 -99.5 14t-29.5 66q0 135 38.5 168.5t130.5 33.5q93 0 133 -29t40 -159zM1379 94q0 -66 -29.5 -80
t-145.5 -14h-38q-70 0 -99.5 14t-29.5 66q0 135 38.5 168.5t130.5 33.5q93 0 133 -29t40 -159z" />
    <glyph glyph-name="nonbreakingspace" unicode="&#xa0;" horiz-adv-x="300" 
 />
    <glyph glyph-name="OE" unicode="&#x152;" horiz-adv-x="1060" 
d="M405 405q0 79 -12.5 134.5t-45.5 55.5q-21 0 -32 -61t-11 -133q0 -17 17 -28t38 -11q18 0 32 13t14 30zM513 732q23 27 55 37t76 10h35.5t35.5 1q69 0 102.5 -14.5t33.5 -61.5q0 -45 -84.5 -51t-84.5 -43q0 -29 14 -40t40 -11q12 0 41 3t46 3q28 0 45 -14.5t17 -34.5
q0 -34 -15.5 -46.5t-55.5 -12.5h-25.5t-24.5 1q-36 0 -53 -9.5t-17 -40.5q0 -28 25.5 -38t68.5 -10q21 0 41 1t39 2q71 0 112.5 -67t41.5 -164q0 -72 -42 -102t-162 -30l-532 -7q-131 0 -192.5 19.5t-61.5 110.5q0 129 25.5 253.5t58.5 224t84.5 138.5t112.5 39
q67 0 117 -8.5t83 -37.5z" />
    <glyph glyph-name="endash" unicode="&#x2013;" horiz-adv-x="750" 
d="M703 356q0 -47 -19.5 -62.5t-63.5 -15.5h-494q-38 0 -57.5 12.5t-19.5 65.5q0 50 32 87.5t85 37.5h416q56 0 88.5 -40t32.5 -85z" />
    <glyph glyph-name="emdash" unicode="&#x2014;" horiz-adv-x="950" 
d="M913 356q0 -47 -19.5 -62.5t-63.5 -15.5h-704q-38 0 -57.5 12.5t-19.5 65.5q0 50 32 87.5t85 37.5h626q56 0 88.5 -40t32.5 -85z" />
    <glyph glyph-name="quotedblleft" unicode="&#x201c;" 
d="M655 614q0 -46 -68.5 -47t-68.5 -19t10 -58t10 -55t-16.5 -19t-63.5 -4q-72 0 -92 18t-20 71q0 91 44.5 189t95.5 98l62 2q54 0 80.5 -51.5t26.5 -124.5zM325 614q0 -46 -68.5 -47t-68.5 -19t10 -58t10 -55t-16.5 -19t-63.5 -4q-72 0 -92 18t-20 71q0 91 44.5 189
t95.5 98l62 2q54 0 80.5 -51.5t26.5 -124.5z" />
    <glyph glyph-name="quotedblright" unicode="&#x201d;" 
d="M656 501q0 -52 -20.5 -70.5t-91.5 -18.5q-56 0 -68 5.5t-12 17.5q0 18 10 58t10 55q0 12 -10.5 15.5t-32.5 3.5h-20q-36 0 -55 8t-19 39q0 74 26 125t81 51l62 -2q51 0 95.5 -98t44.5 -189zM326 501q0 -52 -20.5 -70.5t-91.5 -18.5q-56 0 -68 5.5t-12 17.5q0 18 10 58
t10 55q0 12 -10.5 15.5t-32.5 3.5h-20q-36 0 -55 8t-19 39q0 74 26 125t81 51l62 -2q51 0 95.5 -98t44.5 -189z" />
    <glyph glyph-name="quoteleft" unicode="&#x2018;" horiz-adv-x="370" 
d="M325 614q0 -46 -68.5 -47t-68.5 -19t10 -58t10 -55t-16.5 -19t-63.5 -4q-72 0 -92 18t-20 71q0 91 44.5 189t95.5 98l62 2q54 0 80.5 -51.5t26.5 -124.5z" />
    <glyph glyph-name="quoteright" unicode="&#x2019;" horiz-adv-x="370" 
d="M326 501q0 -52 -20.5 -70.5t-91.5 -18.5q-56 0 -68 5.5t-12 17.5q0 18 10 58t10 55q0 12 -10.5 15.5t-32.5 3.5h-20q-36 0 -55 8t-19 39q0 74 26 125t81 51l62 -2q51 0 95.5 -98t44.5 -189z" />
    <glyph glyph-name="daggerdbl" unicode="&#x2021;" horiz-adv-x="840" 
d="M786 108q0 -32 -19.5 -52.5t-50.5 -20.5h-590q-28 0 -50 20t-22 49v554q0 29 21.5 48.5t50.5 19.5h590q32 0 51 -18t19 -50v-550zM505 -131q0 -11 -10 -18t-25 -7q-26 0 -36 24l-30 75v-97h-40v106q0 13 10 20t24 7t24.5 -5.5t14.5 -15.5l29 -77v95h39v-107zM786 -127
q0 -22 -35 -27h-91v30h76q4 0 7 7v10q-5 4 -8 4h-35q-16 0 -28 7.5t-12 20.5v33q0 9 13 13.5t28 4.5h85v-27h-74q-8 0 -11 -6v-9q5 -8 13 -8h33q16 0 27.5 -7.5t11.5 -17.5v-28zM647 -51h-42v-103h-42v103h-43v27h127v-27zM338 -124q0 -30 -43 -30h-50q-21 0 -30 4.5
t-12 17.5v87q5 21 42 21h50q43 0 43 -27v-73zM181 -103h-82v-51h-44v104q0 16 8 21t36 5h82v-27h-70q-12 0 -12 -6v-17h82v-29zM753 113v545q0 15 -10 25t-27 10h-590q-15 0 -26 -9t-11 -26v-548q0 -17 11 -27t26 -10h590q17 0 27 11t10 29zM297 -117v55q0 11 -14 11h-27
q-13 0 -13 -11v-54q0 -8 13 -8h27q14 0 14 7zM701 127h-137v271l-171 -168l-167 168v-271h-86v509h47l220 -216l217 216h77v-509zM668 162v443h-32l-229 -229l-233 229l-2 -443h20v318l201 -205l203 205v-318h72z" />
    <glyph glyph-name="apple" unicode="&#xf000;" horiz-adv-x="620" 
d="M506 786q-23 -29 -64 -79.5t-84.5 -98.5t-58.5 -48q-10 0 -15 12.5t-5 31.5q0 33 20 56.5t97.5 58.5t109.5 67zM584 457q0 -3 1 -7.5t1 -12.5q0 -23 -5 -43q-6 -10 -12 -19q-8 -5 -18 -5q-20 0 -45 42t-33.5 49.5t-19 13.5t-29.5 6q-23 0 -42 -9.5t-44 -25.5t-48 -16
q-31 0 -50 16t-36 25t-38 9q-28 0 -39 -18.5t-11 -48.5q0 -19 4 -37t8.5 -30.5t27 -45t28.5 -50.5q7 -50 13 -94t28 -44q23 0 47.5 32.5t41.5 32.5q15 0 40.5 -20t31.5 -20t18.5 7.5t30.5 30t22.5 34t12.5 11.5q15 0 37.5 -13t23.5 -24q0 -6 -7 -18q-35 -39 -54.5 -63
t-28 -40.5t-17 -27.5t-18.5 -15.5t-17 -4.5q-15 0 -38 21t-35 25t-21 4q-13 0 -20 -7q-12 -17 -43.5 -38.5t-52.5 -18.5q-39 5 -50 76.5t-20 130.5q-7 16 -34 61t-37 74t-10 61q0 45 16 83t48 53t71 15q17 0 24.5 -1.5t36.5 -16.5t67 -15q32 0 55.5 16.5t47 23t50.5 6.5
q36 0 70 -13q25 -12 44 -40.5t26 -56.5z" />
    <glyph glyph-name="brokenbar" unicode="&#xa6;" horiz-adv-x="500" 
d="M475 79h-450v450h450v-450zM436 119v371h-371v-371h371z" />
    <glyph glyph-name="minus" unicode="&#x2212;" horiz-adv-x="560" 
d="M517 356q0 -47 -19.5 -62.5t-63.5 -15.5h-308q-38 0 -57.5 12.5t-19.5 65.5q0 50 32 87.5t85 37.5h230q56 0 88.5 -40t32.5 -85z" />
  </font>
</defs>
</svg>
